<mxfile host="Electron" modified="2023-05-15T04:04:24.754Z" agent="Mozilla/5.0 (Windows NT 10.0; Win64; x64) AppleWebKit/537.36 (KHTML, like Gecko) draw.io/21.2.8 Chrome/112.0.5615.165 Electron/24.2.0 Safari/537.36" etag="HcBFg_xNHnhemrYme78p" version="21.2.8" type="device">
  <diagram name="Page-1" id="VxqEKcWssq_XyiCzB9bS">
    <mxGraphModel dx="957" dy="690" grid="1" gridSize="10" guides="1" tooltips="1" connect="1" arrows="1" fold="1" page="1" pageScale="1" pageWidth="1654" pageHeight="1169" background="none" math="0" shadow="1">
      <root>
        <mxCell id="0" />
        <mxCell id="1" parent="0" />
        <mxCell id="7Op2JaMXb7pChXdJnSNb-1" value="UI" style="shape=umlLifeline;perimeter=lifelinePerimeter;whiteSpace=wrap;html=1;container=1;collapsible=0;recursiveResize=0;outlineConnect=0;rounded=1;shadow=0;comic=0;labelBackgroundColor=none;strokeWidth=1;fontFamily=Verdana;fontSize=12;align=center;fillColor=#dae8fc;strokeColor=#6c8ebf;" parent="1" vertex="1">
          <mxGeometry x="388" y="26" width="100" height="534" as="geometry" />
        </mxCell>
        <mxCell id="7Op2JaMXb7pChXdJnSNb-2" value="" style="html=1;points=[];perimeter=orthogonalPerimeter;rounded=0;shadow=0;comic=0;labelBackgroundColor=none;strokeWidth=1;fontFamily=Verdana;fontSize=12;align=center;fillColor=#dae8fc;strokeColor=#6c8ebf;" parent="7Op2JaMXb7pChXdJnSNb-1" vertex="1">
          <mxGeometry x="45" y="60" width="10" height="440" as="geometry" />
        </mxCell>
        <mxCell id="7Op2JaMXb7pChXdJnSNb-3" value="&lt;font face=&quot;Verdana&quot; style=&quot;font-size: 11px;&quot;&gt;12. Passenger&#39;s info form&lt;/font&gt;" style="html=1;align=left;spacingLeft=2;endArrow=block;rounded=0;edgeStyle=orthogonalEdgeStyle;curved=0;rounded=0;verticalAlign=middle;" parent="7Op2JaMXb7pChXdJnSNb-1" edge="1">
          <mxGeometry x="-1" y="-22" relative="1" as="geometry">
            <mxPoint x="64" y="234" as="sourcePoint" />
            <Array as="points">
              <mxPoint x="94" y="234" />
              <mxPoint x="94" y="271" />
            </Array>
            <mxPoint x="72" y="271" as="targetPoint" />
            <mxPoint x="-10" y="-2" as="offset" />
          </mxGeometry>
        </mxCell>
        <mxCell id="7Op2JaMXb7pChXdJnSNb-38" value="14. selectSeat()" style="html=1;verticalAlign=middle;endArrow=block;labelBackgroundColor=default;fontFamily=Verdana;fontSize=11;edgeStyle=elbowEdgeStyle;elbow=vertical;entryX=0.03;entryY=0.451;entryDx=0;entryDy=0;entryPerimeter=0;exitX=1.011;exitY=0.451;exitDx=0;exitDy=0;exitPerimeter=0;" parent="7Op2JaMXb7pChXdJnSNb-1" edge="1">
          <mxGeometry relative="1" as="geometry">
            <mxPoint x="54.999999999999886" y="294.22" as="sourcePoint" />
            <mxPoint x="225.18999999999994" y="294.22" as="targetPoint" />
            <Array as="points" />
          </mxGeometry>
        </mxCell>
        <mxCell id="7Op2JaMXb7pChXdJnSNb-42" value="21. checkOut()" style="html=1;verticalAlign=middle;endArrow=block;labelBackgroundColor=default;fontFamily=Verdana;fontSize=11;edgeStyle=elbowEdgeStyle;elbow=vertical;entryX=0.03;entryY=0.451;entryDx=0;entryDy=0;entryPerimeter=0;exitX=1.011;exitY=0.451;exitDx=0;exitDy=0;exitPerimeter=0;" parent="7Op2JaMXb7pChXdJnSNb-1" edge="1">
          <mxGeometry relative="1" as="geometry">
            <mxPoint x="54.999999999999886" y="403.22" as="sourcePoint" />
            <mxPoint x="225.18999999999994" y="403.22" as="targetPoint" />
            <Array as="points" />
          </mxGeometry>
        </mxCell>
        <mxCell id="7Op2JaMXb7pChXdJnSNb-46" value="&lt;font face=&quot;Verdana&quot; style=&quot;font-size: 11px;&quot;&gt;25. View success&lt;/font&gt;" style="html=1;verticalAlign=middle;endArrow=open;dashed=1;endSize=8;edgeStyle=elbowEdgeStyle;elbow=vertical;curved=0;rounded=0;exitX=-0.039;exitY=0.728;exitDx=0;exitDy=0;exitPerimeter=0;entryX=1.011;entryY=0.725;entryDx=0;entryDy=0;entryPerimeter=0;labelBackgroundColor=default;fontSize=11;" parent="7Op2JaMXb7pChXdJnSNb-1" edge="1">
          <mxGeometry x="-0.0009" relative="1" as="geometry">
            <mxPoint x="224.4999999999999" y="443.6600000000001" as="sourcePoint" />
            <mxPoint x="54.999999999999886" y="443" as="targetPoint" />
            <mxPoint as="offset" />
          </mxGeometry>
        </mxCell>
        <mxCell id="vvcB78ZaGYWaYG9tcJMQ-2" value="18. Seat updated or failed" style="html=1;verticalAlign=middle;endArrow=open;dashed=1;endSize=8;edgeStyle=elbowEdgeStyle;elbow=vertical;curved=0;rounded=0;exitX=-0.039;exitY=0.728;exitDx=0;exitDy=0;exitPerimeter=0;entryX=1.011;entryY=0.725;entryDx=0;entryDy=0;entryPerimeter=0;labelBackgroundColor=default;fontSize=11;" edge="1" parent="7Op2JaMXb7pChXdJnSNb-1">
          <mxGeometry x="-0.0009" relative="1" as="geometry">
            <mxPoint x="224.4999999999999" y="334.6600000000001" as="sourcePoint" />
            <mxPoint x="54.999999999999886" y="334" as="targetPoint" />
            <mxPoint as="offset" />
          </mxGeometry>
        </mxCell>
        <mxCell id="7Op2JaMXb7pChXdJnSNb-4" value="Controller" style="shape=umlLifeline;perimeter=lifelinePerimeter;whiteSpace=wrap;html=1;container=1;collapsible=0;recursiveResize=0;outlineConnect=0;rounded=1;shadow=0;comic=0;labelBackgroundColor=none;strokeWidth=1;fontFamily=Verdana;fontSize=12;align=center;fillColor=#dae8fc;strokeColor=#6c8ebf;" parent="1" vertex="1">
          <mxGeometry x="568" y="26" width="100" height="534" as="geometry" />
        </mxCell>
        <mxCell id="7Op2JaMXb7pChXdJnSNb-5" value="" style="html=1;points=[];perimeter=orthogonalPerimeter;rounded=0;shadow=0;comic=0;labelBackgroundColor=none;strokeWidth=1;fontFamily=Verdana;fontSize=12;align=center;fillColor=#dae8fc;strokeColor=#6c8ebf;" parent="7Op2JaMXb7pChXdJnSNb-4" vertex="1">
          <mxGeometry x="45" y="60" width="10" height="440" as="geometry" />
        </mxCell>
        <mxCell id="7Op2JaMXb7pChXdJnSNb-43" value="22. insert data" style="html=1;verticalAlign=middle;endArrow=block;labelBackgroundColor=default;fontFamily=Verdana;fontSize=11;edgeStyle=elbowEdgeStyle;elbow=vertical;exitX=1.011;exitY=0.451;exitDx=0;exitDy=0;exitPerimeter=0;" parent="7Op2JaMXb7pChXdJnSNb-4" edge="1">
          <mxGeometry x="-0.0308" y="-1" relative="1" as="geometry">
            <mxPoint x="54.999999999999886" y="402.22" as="sourcePoint" />
            <mxPoint x="210" y="402" as="targetPoint" />
            <Array as="points" />
            <mxPoint as="offset" />
          </mxGeometry>
        </mxCell>
        <mxCell id="7Op2JaMXb7pChXdJnSNb-44" value="&lt;font face=&quot;Verdana&quot; style=&quot;font-size: 11px;&quot;&gt;23. Success&lt;/font&gt;" style="html=1;verticalAlign=middle;endArrow=open;dashed=1;endSize=8;edgeStyle=elbowEdgeStyle;elbow=vertical;curved=0;rounded=0;exitX=-0.041;exitY=0.723;exitDx=0;exitDy=0;exitPerimeter=0;labelBackgroundColor=default;fontSize=11;" parent="7Op2JaMXb7pChXdJnSNb-4" edge="1">
          <mxGeometry x="-0.0042" relative="1" as="geometry">
            <mxPoint x="209.58999999999992" y="442.05999999999995" as="sourcePoint" />
            <mxPoint x="55" y="442" as="targetPoint" />
            <Array as="points">
              <mxPoint x="207" y="442" />
            </Array>
            <mxPoint as="offset" />
          </mxGeometry>
        </mxCell>
        <mxCell id="7Op2JaMXb7pChXdJnSNb-45" value="&lt;font face=&quot;Verdana&quot; style=&quot;font-size: 11px;&quot;&gt;24. sendEmailTicket()&lt;/font&gt;" style="html=1;align=left;spacingLeft=2;endArrow=block;rounded=0;edgeStyle=orthogonalEdgeStyle;curved=0;rounded=0;verticalAlign=middle;" parent="7Op2JaMXb7pChXdJnSNb-4" edge="1">
          <mxGeometry x="-1" y="-17" relative="1" as="geometry">
            <mxPoint x="58" y="462" as="sourcePoint" />
            <Array as="points">
              <mxPoint x="88" y="462" />
              <mxPoint x="88" y="499" />
            </Array>
            <mxPoint x="66" y="499" as="targetPoint" />
            <mxPoint as="offset" />
          </mxGeometry>
        </mxCell>
        <mxCell id="vvcB78ZaGYWaYG9tcJMQ-1" value="&lt;font face=&quot;Verdana&quot; style=&quot;font-size: 10px;&quot;&gt;17. Seat updated or failed&lt;/font&gt;" style="html=1;verticalAlign=middle;endArrow=open;dashed=1;endSize=8;edgeStyle=elbowEdgeStyle;elbow=vertical;curved=0;rounded=0;exitX=-0.041;exitY=0.723;exitDx=0;exitDy=0;exitPerimeter=0;labelBackgroundColor=default;fontSize=11;entryX=1.333;entryY=0.625;entryDx=0;entryDy=0;entryPerimeter=0;" edge="1" parent="7Op2JaMXb7pChXdJnSNb-4" target="7Op2JaMXb7pChXdJnSNb-5">
          <mxGeometry x="-0.0085" relative="1" as="geometry">
            <mxPoint x="215.58999999999992" y="334.05999999999995" as="sourcePoint" />
            <mxPoint x="61" y="334" as="targetPoint" />
            <Array as="points">
              <mxPoint x="228" y="334" />
            </Array>
            <mxPoint as="offset" />
          </mxGeometry>
        </mxCell>
        <mxCell id="7Op2JaMXb7pChXdJnSNb-6" value="DB" style="shape=umlLifeline;perimeter=lifelinePerimeter;whiteSpace=wrap;html=1;container=1;collapsible=0;recursiveResize=0;outlineConnect=0;rounded=1;shadow=0;comic=0;labelBackgroundColor=none;strokeWidth=1;fontFamily=Verdana;fontSize=12;align=center;fillColor=#dae8fc;strokeColor=#6c8ebf;" parent="1" vertex="1">
          <mxGeometry x="741" y="26" width="100" height="534" as="geometry" />
        </mxCell>
        <mxCell id="7Op2JaMXb7pChXdJnSNb-7" value="" style="html=1;points=[];perimeter=orthogonalPerimeter;rounded=0;shadow=0;comic=0;labelBackgroundColor=none;strokeWidth=1;fontFamily=Verdana;fontSize=12;align=center;fillColor=#dae8fc;strokeColor=#6c8ebf;" parent="7Op2JaMXb7pChXdJnSNb-6" vertex="1">
          <mxGeometry x="45" y="60" width="10" height="440" as="geometry" />
        </mxCell>
        <mxCell id="vvcB78ZaGYWaYG9tcJMQ-3" value="&lt;font face=&quot;Verdana&quot; style=&quot;font-size: 11px;&quot;&gt;16. Validation&lt;/font&gt;" style="html=1;align=left;spacingLeft=2;endArrow=block;rounded=0;edgeStyle=orthogonalEdgeStyle;curved=0;rounded=0;verticalAlign=middle;" edge="1" parent="7Op2JaMXb7pChXdJnSNb-6">
          <mxGeometry x="-1" y="-17" relative="1" as="geometry">
            <mxPoint x="56" y="294" as="sourcePoint" />
            <Array as="points">
              <mxPoint x="86" y="294" />
              <mxPoint x="86" y="331" />
            </Array>
            <mxPoint x="64" y="331" as="targetPoint" />
            <mxPoint as="offset" />
          </mxGeometry>
        </mxCell>
        <mxCell id="7Op2JaMXb7pChXdJnSNb-8" value="Passenger" style="shape=umlLifeline;perimeter=lifelinePerimeter;whiteSpace=wrap;html=1;container=1;collapsible=0;recursiveResize=0;outlineConnect=0;rounded=1;shadow=0;comic=0;labelBackgroundColor=none;strokeWidth=1;fontFamily=Verdana;fontSize=12;align=center;fillColor=#dae8fc;strokeColor=#6c8ebf;" parent="1" vertex="1">
          <mxGeometry x="209" y="26" width="100" height="534" as="geometry" />
        </mxCell>
        <mxCell id="7Op2JaMXb7pChXdJnSNb-9" value="" style="html=1;points=[];perimeter=orthogonalPerimeter;rounded=0;shadow=0;comic=0;labelBackgroundColor=none;strokeWidth=1;fontFamily=Verdana;fontSize=12;align=center;fillColor=#dae8fc;strokeColor=#6c8ebf;" parent="7Op2JaMXb7pChXdJnSNb-8" vertex="1">
          <mxGeometry x="45" y="60" width="10" height="440" as="geometry" />
        </mxCell>
        <mxCell id="7Op2JaMXb7pChXdJnSNb-41" value="20. Fill &amp;amp; Submit" style="html=1;verticalAlign=middle;endArrow=block;entryX=0;entryY=0.452;labelBackgroundColor=default;fontFamily=Verdana;fontSize=11;edgeStyle=elbowEdgeStyle;elbow=vertical;entryDx=0;entryDy=0;entryPerimeter=0;exitX=0.944;exitY=0.453;exitDx=0;exitDy=0;exitPerimeter=0;" parent="7Op2JaMXb7pChXdJnSNb-8" edge="1">
          <mxGeometry x="-0.0027" relative="1" as="geometry">
            <mxPoint x="55.00000000000006" y="402.21999999999997" as="sourcePoint" />
            <mxPoint x="224.56" y="402.00000000000006" as="targetPoint" />
            <Array as="points" />
            <mxPoint as="offset" />
          </mxGeometry>
        </mxCell>
        <mxCell id="7Op2JaMXb7pChXdJnSNb-10" value="3. Select List of flight" style="html=1;verticalAlign=middle;endArrow=block;labelBackgroundColor=default;fontFamily=Verdana;fontSize=11;edgeStyle=elbowEdgeStyle;elbow=vertical;" parent="1" edge="1">
          <mxGeometry relative="1" as="geometry">
            <mxPoint x="623" y="120" as="sourcePoint" />
            <Array as="points">
              <mxPoint x="700" y="120" />
              <mxPoint x="620" y="60" />
            </Array>
            <mxPoint x="778" y="120" as="targetPoint" />
          </mxGeometry>
        </mxCell>
        <mxCell id="7Op2JaMXb7pChXdJnSNb-11" value="1. Input info" style="html=1;verticalAlign=middle;endArrow=block;entryX=0;entryY=0.452;labelBackgroundColor=default;fontFamily=Verdana;fontSize=11;edgeStyle=elbowEdgeStyle;elbow=vertical;entryDx=0;entryDy=0;entryPerimeter=0;exitX=0.944;exitY=0.453;exitDx=0;exitDy=0;exitPerimeter=0;" parent="1" edge="1">
          <mxGeometry x="-0.0027" relative="1" as="geometry">
            <mxPoint x="263.44000000000005" y="138.65999999999997" as="sourcePoint" />
            <mxPoint x="433" y="138.44000000000005" as="targetPoint" />
            <Array as="points" />
            <mxPoint as="offset" />
          </mxGeometry>
        </mxCell>
        <mxCell id="7Op2JaMXb7pChXdJnSNb-12" value="2. getFlightAvai()" style="verticalAlign=middle;endArrow=block;labelBackgroundColor=default;fontFamily=Verdana;fontSize=11;edgeStyle=elbowEdgeStyle;elbow=vertical;entryX=0.03;entryY=0.451;entryDx=0;entryDy=0;entryPerimeter=0;exitX=1.011;exitY=0.451;exitDx=0;exitDy=0;exitPerimeter=0;labelBorderColor=none;fontColor=default;html=1;spacingTop=0;spacingLeft=0;horizontal=1;" parent="1" edge="1">
          <mxGeometry x="0.021" relative="1" as="geometry">
            <mxPoint x="443.1099999999999" y="120.22000000000003" as="sourcePoint" />
            <mxPoint x="613.3" y="120.22000000000003" as="targetPoint" />
            <Array as="points" />
            <mxPoint as="offset" />
          </mxGeometry>
        </mxCell>
        <mxCell id="7Op2JaMXb7pChXdJnSNb-13" value="&lt;font face=&quot;Verdana&quot; style=&quot;font-size: 11px;&quot;&gt;5. View List of flight&lt;/font&gt;" style="html=1;verticalAlign=middle;endArrow=open;dashed=1;endSize=8;edgeStyle=elbowEdgeStyle;elbow=vertical;curved=0;rounded=0;exitX=-0.039;exitY=0.728;exitDx=0;exitDy=0;exitPerimeter=0;entryX=1.011;entryY=0.725;entryDx=0;entryDy=0;entryPerimeter=0;labelBackgroundColor=default;fontSize=11;" parent="1" edge="1">
          <mxGeometry x="-0.0009" relative="1" as="geometry">
            <mxPoint x="612.6099999999999" y="160.16000000000008" as="sourcePoint" />
            <mxPoint x="443.1099999999999" y="159.5" as="targetPoint" />
            <mxPoint as="offset" />
          </mxGeometry>
        </mxCell>
        <mxCell id="7Op2JaMXb7pChXdJnSNb-14" value="&lt;font face=&quot;Verdana&quot; style=&quot;font-size: 11px;&quot;&gt;4. List flight available&lt;/font&gt;" style="html=1;verticalAlign=middle;endArrow=open;dashed=1;endSize=8;edgeStyle=elbowEdgeStyle;elbow=vertical;curved=0;rounded=0;exitX=-0.041;exitY=0.723;exitDx=0;exitDy=0;exitPerimeter=0;labelBackgroundColor=default;fontSize=11;" parent="1" edge="1">
          <mxGeometry x="-0.0042" relative="1" as="geometry">
            <mxPoint x="777.5899999999999" y="160.05999999999995" as="sourcePoint" />
            <mxPoint x="623" y="160" as="targetPoint" />
            <Array as="points">
              <mxPoint x="775" y="160" />
            </Array>
            <mxPoint as="offset" />
          </mxGeometry>
        </mxCell>
        <mxCell id="7Op2JaMXb7pChXdJnSNb-29" value="6. Select flight" style="html=1;verticalAlign=middle;endArrow=block;entryX=0;entryY=0.452;labelBackgroundColor=default;fontFamily=Verdana;fontSize=11;edgeStyle=elbowEdgeStyle;elbow=vertical;entryDx=0;entryDy=0;entryPerimeter=0;exitX=0.944;exitY=0.453;exitDx=0;exitDy=0;exitPerimeter=0;" parent="1" edge="1">
          <mxGeometry x="-0.0027" relative="1" as="geometry">
            <mxPoint x="263.00000000000006" y="200.21999999999997" as="sourcePoint" />
            <mxPoint x="432.56" y="200.00000000000006" as="targetPoint" />
            <Array as="points" />
            <mxPoint as="offset" />
          </mxGeometry>
        </mxCell>
        <mxCell id="7Op2JaMXb7pChXdJnSNb-30" value="7. getFlightSelected()" style="html=1;verticalAlign=middle;endArrow=block;labelBackgroundColor=default;fontFamily=Verdana;fontSize=11;edgeStyle=elbowEdgeStyle;elbow=vertical;entryX=0.03;entryY=0.451;entryDx=0;entryDy=0;entryPerimeter=0;exitX=1.011;exitY=0.451;exitDx=0;exitDy=0;exitPerimeter=0;" parent="1" edge="1">
          <mxGeometry relative="1" as="geometry">
            <mxPoint x="442.9999999999999" y="200.22000000000003" as="sourcePoint" />
            <mxPoint x="613.1899999999999" y="200.22000000000003" as="targetPoint" />
            <Array as="points" />
          </mxGeometry>
        </mxCell>
        <mxCell id="7Op2JaMXb7pChXdJnSNb-31" value="8. getFlightSelected()" style="html=1;verticalAlign=middle;endArrow=block;labelBackgroundColor=default;fontFamily=Verdana;fontSize=11;edgeStyle=elbowEdgeStyle;elbow=vertical;exitX=1;exitY=0.514;exitDx=0;exitDy=0;exitPerimeter=0;entryX=0.2;entryY=0.514;entryDx=0;entryDy=0;entryPerimeter=0;" parent="1" edge="1">
          <mxGeometry relative="1" as="geometry">
            <mxPoint x="623" y="200.33999999999992" as="sourcePoint" />
            <mxPoint x="780" y="200.33999999999992" as="targetPoint" />
            <Array as="points" />
          </mxGeometry>
        </mxCell>
        <mxCell id="7Op2JaMXb7pChXdJnSNb-33" value="&lt;font face=&quot;Verdana&quot; style=&quot;font-size: 11px;&quot;&gt;9. Flight selected&lt;/font&gt;" style="html=1;verticalAlign=middle;endArrow=open;dashed=1;endSize=8;edgeStyle=elbowEdgeStyle;elbow=vertical;curved=0;rounded=0;exitX=-0.041;exitY=0.723;exitDx=0;exitDy=0;exitPerimeter=0;labelBackgroundColor=default;fontSize=11;" parent="1" edge="1">
          <mxGeometry x="-0.0042" relative="1" as="geometry">
            <mxPoint x="777.5899999999999" y="240.05999999999995" as="sourcePoint" />
            <mxPoint x="623" y="240" as="targetPoint" />
            <Array as="points">
              <mxPoint x="775" y="240" />
            </Array>
            <mxPoint as="offset" />
          </mxGeometry>
        </mxCell>
        <mxCell id="7Op2JaMXb7pChXdJnSNb-34" value="&lt;font face=&quot;Verdana&quot; style=&quot;font-size: 11px;&quot;&gt;10. View Flight details&lt;/font&gt;" style="html=1;verticalAlign=middle;endArrow=open;dashed=1;endSize=8;edgeStyle=elbowEdgeStyle;elbow=vertical;curved=0;rounded=0;exitX=-0.039;exitY=0.728;exitDx=0;exitDy=0;exitPerimeter=0;entryX=1.011;entryY=0.725;entryDx=0;entryDy=0;entryPerimeter=0;labelBackgroundColor=default;fontSize=11;" parent="1" edge="1">
          <mxGeometry x="-0.0009" relative="1" as="geometry">
            <mxPoint x="612.6099999999999" y="240.16000000000008" as="sourcePoint" />
            <mxPoint x="443.1099999999999" y="239.5" as="targetPoint" />
            <mxPoint as="offset" />
          </mxGeometry>
        </mxCell>
        <mxCell id="7Op2JaMXb7pChXdJnSNb-35" value="11. Fill &amp;amp; Submit" style="html=1;verticalAlign=middle;endArrow=block;entryX=0;entryY=0.452;labelBackgroundColor=default;fontFamily=Verdana;fontSize=11;edgeStyle=elbowEdgeStyle;elbow=vertical;entryDx=0;entryDy=0;entryPerimeter=0;exitX=0.944;exitY=0.453;exitDx=0;exitDy=0;exitPerimeter=0;" parent="1" edge="1">
          <mxGeometry x="-0.0027" relative="1" as="geometry">
            <mxPoint x="263.44000000000005" y="279.65999999999997" as="sourcePoint" />
            <mxPoint x="433" y="279.44000000000005" as="targetPoint" />
            <Array as="points" />
            <mxPoint as="offset" />
          </mxGeometry>
        </mxCell>
        <mxCell id="7Op2JaMXb7pChXdJnSNb-37" value="13. Select seat(s)" style="html=1;verticalAlign=middle;endArrow=block;entryX=0;entryY=0.452;labelBackgroundColor=default;fontFamily=Verdana;fontSize=11;edgeStyle=elbowEdgeStyle;elbow=vertical;entryDx=0;entryDy=0;entryPerimeter=0;exitX=0.944;exitY=0.453;exitDx=0;exitDy=0;exitPerimeter=0;" parent="1" edge="1">
          <mxGeometry x="-0.0027" relative="1" as="geometry">
            <mxPoint x="263.44000000000005" y="319.65999999999997" as="sourcePoint" />
            <mxPoint x="433" y="319.44000000000005" as="targetPoint" />
            <Array as="points" />
            <mxPoint as="offset" />
          </mxGeometry>
        </mxCell>
        <mxCell id="7Op2JaMXb7pChXdJnSNb-39" value="15. handleSeat()" style="html=1;verticalAlign=middle;endArrow=block;labelBackgroundColor=default;fontFamily=Verdana;fontSize=11;edgeStyle=elbowEdgeStyle;elbow=vertical;exitX=1.011;exitY=0.451;exitDx=0;exitDy=0;exitPerimeter=0;" parent="1" edge="1">
          <mxGeometry x="-0.0308" y="-1" relative="1" as="geometry">
            <mxPoint x="623.9999999999999" y="320.22" as="sourcePoint" />
            <mxPoint x="779" y="320" as="targetPoint" />
            <Array as="points" />
            <mxPoint as="offset" />
          </mxGeometry>
        </mxCell>
        <mxCell id="7Op2JaMXb7pChXdJnSNb-40" value="&lt;font face=&quot;Verdana&quot; style=&quot;font-size: 11px;&quot;&gt;19. Payment form&lt;/font&gt;" style="html=1;align=left;spacingLeft=2;endArrow=block;rounded=0;edgeStyle=orthogonalEdgeStyle;curved=0;rounded=0;verticalAlign=middle;" parent="1" edge="1">
          <mxGeometry x="1" y="-19" relative="1" as="geometry">
            <mxPoint x="447" y="380" as="sourcePoint" />
            <Array as="points">
              <mxPoint x="477" y="380" />
              <mxPoint x="477" y="417" />
            </Array>
            <mxPoint x="455" y="417" as="targetPoint" />
            <mxPoint x="-8" y="2" as="offset" />
          </mxGeometry>
        </mxCell>
      </root>
    </mxGraphModel>
  </diagram>
</mxfile>
